<svg id="Capa_1" enable-background="new 0 0 512 512" height="512" viewBox="0 0 512 512" width="512" xmlns="http://www.w3.org/2000/svg"><g><path d="m495.01 189.689c-10.6-28.359-26.04-53.77-45.88-75.52-18.71-20.54-41.1-37.67-66.55-50.91-24.31-12.66-50.84-21.49-78.85-26.25-.55-.09-1.12-.14-1.68-.14-4.89 0-9.03 3.5-9.85 8.33-.92 5.43 2.75 10.609 8.18 11.529 7.489 1.273 14.866 2.881 22.115 4.788l-13.723 41.394c-16.886-4.307-34.609-6.545-52.772-6.545-17.544 0-34.68 2.084-51.046 6.106l-13.727-41.4c7.476-1.911 15.086-3.503 22.812-4.743 5.44-.87 9.16-6.011 8.29-11.46-.38-2.36-1.6-4.511-3.42-6.051-2.22-1.869-5.17-2.689-8.04-2.239-28.27 4.54-55.08 13.21-79.7 25.77-25.739 13.152-48.419 30.252-67.379 50.822-20.12 21.8-35.78 47.31-46.54 75.83-11.47 30.41-17.27 64.05-17.25 100v180c0 5.522 4.477 10 10 10h492c5.523 0 10-4.478 10-10v-180c.02-35.67-5.69-69.09-16.99-99.311zm-426.345-51.486 34.978 27.294c-15.733 19.486-27.036 42.183-33.667 67.483l-42.727-8.685c7.706-32.404 21.543-61.192 41.416-86.092zm-2.805 114.35c-1.894 11.805-2.86 24.092-2.86 36.813v49.634h-43v-50c.012-15.659 1.158-30.687 3.404-45.077zm-45.86 106.447h103v40h-103zm192.915-29.201c-.909-10.25 2.761-19.579 10.91-27.728 9.453-9.453 15.103-18.597 18.41-26.69 9.674 15.68 17.295 30.876 17.295 37.215 0 3.64 1.978 6.992 5.164 8.753 3.186 1.76 7.076 1.649 10.158-.286 7.917-4.977 13.526-13.245 17.399-21.326 3.074 8.944 5.94 21.724 6.746 39.264h-84.07c-.845-2.414-1.692-5.585-2.012-9.202zm156.085 29.201v40h-226v-40zm-183 60v40h-103v-40zm20 0h103v40h-103zm123 0h103v40h-103zm60-20v-40h103v40zm55.047-259.894c19.562 24.79 33.188 53.397 40.787 85.552l-42.717 8.68c-6.518-25.058-17.608-47.572-33.042-66.949zm2.149 113.813 42.455-8.627c2.21 14.279 3.337 29.184 3.349 44.709v50h-43v-49.634c0-12.592-.949-24.754-2.804-36.448zm-104.572-185.544c34.529 12.111 65.293 31.499 89.297 56.605l-35.219 27.476c-2.341-2.329-4.756-4.6-7.245-6.813-17.537-15.589-38.088-27.669-60.564-35.848zm87.376 221.991v49.634h-109.986c-2.106-51.249-20.044-69.462-22.203-71.471-2.672-2.485-6.486-3.318-9.951-2.173-3.465 1.146-6.031 4.088-6.694 7.676-.668 3.613-2.783 11.595-6.308 18.789-8.89-20.31-25.535-43.79-29.821-49.695-2.905-4.004-8.365-5.479-12.757-3.205-4.364 2.262-6.497 7.158-4.959 11.814.351 1.581 3.212 17.341-16.64 37.193-17.143 17.143-18.698 36.686-15.575 51.071h-111.106v-49.634c0-118.862 89.678-173 173-173s173 54.139 173 173.001zm-256.946-222.572 13.73 41.411c-23.129 8.182-44.27 20.463-62.241 36.437-2.199 1.955-4.332 3.963-6.416 6.009l-35.251-27.507c24.292-25.123 55.354-44.42 90.178-56.35zm-152.054 352.206h43v40h-43zm472 40h-40v-40h40z"/><circle cx="257.28" cy="43" r="10"/></g></svg>